<!-- 180x180 Apple touch icon -->
<svg width="180" height="180" viewBox="0 0 32 32" xmlns="http://www.w3.org/2000/svg">
  <defs>
    <linearGradient id="bg180" x1="0%" y1="0%" x2="100%" y2="100%">
      <stop offset="0%" style="stop-color:#1e293b;stop-opacity:1" />
      <stop offset="100%" style="stop-color:#0f172a;stop-opacity:1" />
    </linearGradient>
  </defs>
  
  <!-- Rounded rectangle for Apple -->
  <rect width="32" height="32" rx="6" ry="6" fill="url(#bg180)"/>
  
  <!-- Space stars -->
  <circle cx="4" cy="6" r="0.8" fill="#6EE7B7" opacity="0.8"/>
  <circle cx="28" cy="4" r="0.6" fill="#E5E7EB" opacity="0.6"/>
  <circle cx="3" cy="26" r="0.7" fill="#6EE7B7" opacity="0.7"/>
  <circle cx="29" cy="24" r="0.5" fill="#E5E7EB" opacity="0.5"/>
  <circle cx="6" cy="18" r="0.4" fill="#E5E7EB" opacity="0.6"/>
  
  <!-- Planet -->
  <circle cx="27" cy="8" r="3.5" fill="#374151" opacity="0.5"/>
  <ellipse cx="26" cy="7" rx="1" ry="0.7" fill="#1F2937" opacity="0.7"/>
  <circle cx="25.5" cy="8.5" r="0.4" fill="#1F2937" opacity="0.6"/>
  
  <!-- Constellation lines -->
  <path d="M4 6 L28 4" stroke="#6EE7B7" stroke-width="0.3" opacity="0.3"/>
  <path d="M3 26 L6 18" stroke="#6EE7B7" stroke-width="0.2" opacity="0.4"/>
  
  <!-- Cat ears -->
  <path d="M10 6 L12 3 L14 6 Z" fill="#6EE7B7" opacity="0.9"/>
  <path d="M18 6 L20 3 L22 6 Z" fill="#6EE7B7" opacity="0.9"/>
  
  <!-- Inner ear details -->
  <path d="M11 5.5 L12 4 L13 5.5 Z" fill="#0f172a" opacity="0.7"/>
  <path d="M19 5.5 L20 4 L21 5.5 Z" fill="#0f172a" opacity="0.7"/>
  
  <!-- Letters with enhanced styling -->
  <text x="8.5" y="23" font-family="system-ui, -apple-system, sans-serif" font-size="16" font-weight="800" fill="#6EE7B7">F</text>
  <text x="17.5" y="23" font-family="system-ui, -apple-system, sans-serif" font-size="16" font-weight="800" fill="#6EE7B7">A</text>
  
  <!-- Enhanced cat features -->
  <circle cx="12" cy="10" r="0.8" fill="#6EE7B7" opacity="0.7"/>
  <circle cx="20" cy="10" r="0.8" fill="#6EE7B7" opacity="0.7"/>
  
  <!-- Nose -->
  <path d="M15.5 12 L16.5 12 L16 13 Z" fill="#6EE7B7" opacity="0.6"/>
  
  <!-- Whiskers -->
  <line x1="8" y1="11" x2="10.5" y2="10.5" stroke="#6EE7B7" stroke-width="0.5" opacity="0.5"/>
  <line x1="8.5" y1="12.5" x2="10.5" y2="12" stroke="#6EE7B7" stroke-width="0.5" opacity="0.5"/>
  <line x1="21.5" y1="10.5" x2="24" y2="11" stroke="#6EE7B7" stroke-width="0.5" opacity="0.5"/>
  <line x1="21.5" y1="12" x2="23.5" y2="12.5" stroke="#6EE7B7" stroke-width="0.5" opacity="0.5"/>
  
  <!-- Comet with trail -->
  <circle cx="2" cy="16" r="1" fill="#6EE7B7" opacity="0.6"/>
  <path d="M2.5 16 Q5 17 8 16.5" stroke="#6EE7B7" stroke-width="1" fill="none" opacity="0.4"/>
  <path d="M3 16.5 Q4.5 17.5 6 16.8" stroke="#6EE7B7" stroke-width="0.6" fill="none" opacity="0.3"/>
</svg>
