<!-- 32x32 favicon -->
<svg width="32" height="32" viewBox="0 0 32 32" xmlns="http://www.w3.org/2000/svg">
  <defs>
    <linearGradient id="bg32" x1="0%" y1="0%" x2="100%" y2="100%">
      <stop offset="0%" style="stop-color:#1e293b;stop-opacity:1" />
      <stop offset="100%" style="stop-color:#0f172a;stop-opacity:1" />
    </linearGradient>
  </defs>
  
  <circle cx="16" cy="16" r="16" fill="url(#bg32)"/>
  
  <!-- Space stars -->
  <circle cx="5" cy="7" r="0.8" fill="#6EE7B7" opacity="0.8"/>
  <circle cx="27" cy="5" r="0.6" fill="#E5E7EB" opacity="0.6"/>
  <circle cx="3" cy="25" r="0.7" fill="#6EE7B7" opacity="0.7"/>
  <circle cx="28" cy="22" r="0.5" fill="#E5E7EB" opacity="0.5"/>
  
  <!-- Planet -->
  <circle cx="26" cy="8" r="3" fill="#374151" opacity="0.5"/>
  <ellipse cx="25" cy="7" rx="0.8" ry="0.6" fill="#1F2937" opacity="0.7"/>
  
  <!-- Constellation lines -->
  <path d="M5 7 L27 5" stroke="#6EE7B7" stroke-width="0.3" opacity="0.3"/>
  
  <!-- Cat ears -->
  <path d="M10 6 L12 3 L14 6 Z" fill="#6EE7B7" opacity="0.9"/>
  <path d="M18 6 L20 3 L22 6 Z" fill="#6EE7B7" opacity="0.9"/>
  
  <!-- Inner ear details -->
  <path d="M11 5.5 L12 4 L13 5.5 Z" fill="#0f172a" opacity="0.7"/>
  <path d="M19 5.5 L20 4 L21 5.5 Z" fill="#0f172a" opacity="0.7"/>
  
  <!-- Letters -->
  <text x="8.5" y="23" font-family="system-ui, -apple-system, sans-serif" font-size="16" font-weight="800" fill="#6EE7B7">F</text>
  <text x="17.5" y="23" font-family="system-ui, -apple-system, sans-serif" font-size="16" font-weight="800" fill="#6EE7B7">A</text>
  
  <!-- Cat eyes -->
  <circle cx="12" cy="10" r="0.8" fill="#6EE7B7" opacity="0.6"/>
  <circle cx="20" cy="10" r="0.8" fill="#6EE7B7" opacity="0.6"/>
  
  <!-- Nose -->
  <path d="M15.5 12 L16.5 12 L16 13 Z" fill="#6EE7B7" opacity="0.5"/>
  
  <!-- Small comet -->
  <circle cx="2" cy="18" r="0.8" fill="#6EE7B7" opacity="0.5"/>
  <path d="M2.5 18 Q4 19 6 18" stroke="#6EE7B7" stroke-width="0.8" fill="none" opacity="0.3"/>
</svg>
