<svg width="32" height="32" viewBox="0 0 32 32" xmlns="http://www.w3.org/2000/svg">
  <!-- Background circle with gradient -->
  <defs>
    <linearGradient id="bg" x1="0%" y1="0%" x2="100%" y2="100%">
      <stop offset="0%" style="stop-color:#1e293b;stop-opacity:1" />
      <stop offset="100%" style="stop-color:#0f172a;stop-opacity:1" />
    </linearGradient>
  </defs>
  
  <circle cx="16" cy="16" r="16" fill="url(#bg)"/>
  
  <!-- Space stars scattered around -->
  <circle cx="5" cy="7" r="0.6" fill="#6EE7B7" opacity="0.8"/>
  <circle cx="27" cy="5" r="0.4" fill="#E5E7EB" opacity="0.6"/>
  <circle cx="26" cy="25" r="0.5" fill="#6EE7B7" opacity="0.7"/>
  <circle cx="3" cy="24" r="0.3" fill="#E5E7EB" opacity="0.5"/>
  <circle cx="7" cy="29" r="0.4" fill="#6EE7B7" opacity="0.9"/>
  <circle cx="30" cy="12" r="0.3" fill="#E5E7EB" opacity="0.4"/>
  
  <!-- Small planet/moon in corner -->
  <circle cx="24" cy="8" r="2.5" fill="#64748B" opacity="0.8"/>
  <circle cx="24.5" cy="7.5" r="0.4" fill="#1e293b" opacity="0.5"/>
  <circle cx="23" cy="8.8" r="0.3" fill="#1e293b" opacity="0.4"/>
  
  <!-- Main letters F A in center -->
  <g transform="translate(16,16)">
    <!-- F letter -->
    <path d="M-6,-8 L-6,8 L-4,8 L-4,2 L-1,2 L-1,0 L-4,0 L-4,-6 L-1,-6 L-1,-8 Z" 
          fill="#6EE7B7" 
          stroke="none"/>
    
    <!-- A letter -->
    <path d="M2,-8 L0,-2 L4,-2 L2,-8 Z M-0.5,0 L5.5,0 L6.5,2 L8,2 L3,8 L1,8 L-1,2 L-0.5,0 Z" 
          fill="#6EE7B7" 
          stroke="none"/>
  </g>
  
  <!-- Orbital ring around letters -->
  <circle cx="16" cy="16" r="12" fill="none" stroke="#6EE7B7" stroke-width="0.3" opacity="0.4"/>
  
  <!-- Small orbital dots -->
  <circle cx="16" cy="4" r="0.6" fill="#6EE7B7" opacity="0.8"/>
  <circle cx="28" cy="16" r="0.5" fill="#E5E7EB" opacity="0.6"/>
  <circle cx="16" cy="28" r="0.6" fill="#6EE7B7" opacity="0.8"/>
  <circle cx="4" cy="16" r="0.5" fill="#E5E7EB" opacity="0.6"/>
</svg>
